#tb 0: 1000/14587
#media_type 0: video
#codec_id 0: rawvideo
#dimensions 0: 496x241
#sar 0: 0/1
0,          0,          0,        1,   478144, 0x48a01dbb
0,          1,          1,        1,   478144, 0x48a01dbb
0,          2,          2,        1,   478144, 0x48a01dbb
0,          3,          3,        1,   478144, 0xb978a72f
0,          4,          4,        1,   478144, 0x7bbb4679
0,          5,          5,        1,   478144, 0xc3fd3f59
0,          6,          6,        1,   478144, 0xfd2a4816
0,          7,          7,        1,   478144, 0x207f65d3
0,          8,          8,        1,   478144, 0x207f65d3
0,          9,          9,        1,   478144, 0x207f65d3
